<?xml version="1.0" standalone="no"?><!DOCTYPE svg PUBLIC "-//W3C//DTD SVG 1.1//EN" "http://www.w3.org/Graphics/SVG/1.1/DTD/svg11.dtd"><svg t="1557562355531" class="icon" style="" viewBox="0 0 1024 1024" version="1.1" xmlns="http://www.w3.org/2000/svg" p-id="1001" xmlns:xlink="http://www.w3.org/1999/xlink" width="200" height="200"><defs><style type="text/css"></style></defs><path d="M39.890824 876.303059a28.340706 28.340706 0 0 1-22.272-10.330353c-4.969412-5.993412-7.589647-14.019765-7.589648-23.160471V205.914353c0-22.467765 14.155294-46.396235 32.948706-55.627294 4.096-2.032941 102.851765-50.462118 212.389647-50.462118 101.165176 0 155.045647 41.125647 166.204236 50.703059 25.961412 12.032 40.222118 31.036235 40.222117 53.684706v636.912941c0 19.636706-16.865882 35.011765-38.4 35.011765a42.014118 42.014118 0 0 1-16.534588-3.328l-2.635294-1.114353-2.048-2.002824c-0.391529-0.376471-47.555765-44.423529-150.949647-44.423529-106.812235 0-192.346353 45.613176-193.204706 46.095059a37.797647 37.797647 0 0 1-18.130823 4.939294z m215.491764-746.360471c-102.550588 0-198.098824 46.863059-199.062588 47.344941-8.628706 4.246588-16.158118 17.618824-16.158118 28.626824v636.912941a12.197647 12.197647 0 0 0 0.39153 3.282824 10.902588 10.902588 0 0 0 3.147294-1.219765c3.764706-2.048 93.184-49.724235 207.540706-49.724235 103.303529 0 156.837647 39.890824 169.261176 50.537411 4.111059 0.903529 11.173647-0.256 11.173647-4.577882V204.227765c0-13.583059-13.281882-22.256941-24.410353-27.120941l-2.439529-1.054118-1.942588-1.852235c-0.406588-0.391529-48.384-44.257882-147.501177-44.257883zM883.290353 876.544c-5.782588 0-11.851294-1.551059-17.814588-4.653176-0.888471-0.451765-91.196235-46.622118-200.026353-46.622118-102.113882 0-128.858353 39.830588-129.099294 40.222118l-2.288942 3.584-4.005647 2.108235c-3.975529 1.912471-16.007529 7.725176-26.759529 0.948706-11.369412-7.137882-11.369412-22.076235-11.369412-31.006118V204.227765c0-10.270118 0-40.583529 22.768941-53.12753 10.661647-11.128471 56.003765-51.260235 155.587765-51.260235 33.942588 0 64.150588 6.716235 93.349647 13.221647l1.746824 0.376471-6.53553 29.409882-1.746823-0.391529c-27.632941-6.144-56.184471-12.498824-86.829177-12.498824-97.566118 0-134.354824 42.496-134.701176 42.932706l-2.273883 2.725647-3.328 1.520941c-5.330824 2.334118-7.920941 11.203765-7.920941 27.120941v632.591059c17.814588-16.263529 59.120941-41.652706 143.405177-41.652706 116.449882 0 210.010353 47.992471 213.940706 50.025412 1.972706 1.008941 3.207529 1.204706 3.734588 1.234824-0.060235-0.316235 0.316235-1.460706 0.316235-3.599059V421.647059h30.117647v421.180235c0 12.995765-5.421176 23.762824-14.893176 29.500235a29.214118 29.214118 0 0 1-15.375059 4.216471z" p-id="1002" fill="#ffffff"></path><path d="M425.984 877.221647l-0.180706-717.221647 94.629647 0.075294-0.707765 715.866353-93.741176 1.28zM455.920941 195.764706l0.180706 653.733647 33.551059 0.948706L490.285176 195.764706h-34.364235zM938.24 333.778824a15.058824 15.058824 0 0 1-9.893647-26.413177 116.419765 116.419765 0 0 0 39.966118-87.792941c0-64.195765-52.224-116.404706-116.389647-116.404706-31.879529 0-61.650824 12.649412-83.787295 35.599059a15.058824 15.058824 0 1 1-21.669647-20.916706 145.362824 145.362824 0 0 1 105.472-44.815059c80.790588 0 146.507294 65.731765 146.507294 146.522353a146.597647 146.597647 0 0 1-50.29647 110.501647 14.983529 14.983529 0 0 1-9.908706 3.71953zM777.758118 494.215529a7.499294 7.499294 0 0 1-7.454118-6.490353l-8.719059-62.403764-57.449412 25.825882a7.514353 7.514353 0 1 1-9.667764-10.511059l67.855059-122.774588a7.529412 7.529412 0 0 1 13.17647 7.303529l-56.922353 103.002353 46.019765-20.675764a7.529412 7.529412 0 0 1 10.541176 5.827764l6.987294 49.965177 64.030118-115.892706a7.529412 7.529412 0 0 1 13.176471 7.303529l-74.962824 135.664942a7.574588 7.574588 0 0 1-6.610823 3.855058z" p-id="1003" fill="#ffffff"></path><path d="M930.951529 501.744941a15.028706 15.028706 0 0 1-13.17647-7.785412l-32.783059-59.301647a15.028706 15.028706 0 0 1 5.903059-20.449882 15.013647 15.013647 0 0 1 20.449882 5.903059l10.932706 19.772235 3.855059-27.587765a15.073882 15.073882 0 0 1 21.097412-11.655529l25.404235 11.429647-47.525647-86.016a15.028706 15.028706 0 0 1 5.903059-20.449882 15.013647 15.013647 0 0 1 20.449882 5.903059l69.376 125.545411a15.058824 15.058824 0 0 1-19.365647 21.007059l-48.293647-21.699765-7.318588 52.434824a15.058824 15.058824 0 0 1-12.16753 12.739765 20.992 20.992 0 0 1-2.740706 0.210823z" p-id="1004" fill="#ffffff"></path><path d="M898.183529 442.443294a15.058824 15.058824 0 0 1-13.191529-7.785412l-40.809412-73.84847a15.028706 15.028706 0 0 1 5.903059-20.449883 15.028706 15.028706 0 0 1 20.449882 5.903059l40.809412 73.848471a15.028706 15.028706 0 0 1-13.161412 22.332235zM894.584471 275.380706a7.378824 7.378824 0 0 1-3.493647-0.873412l-35.358118-18.582588-35.358118 18.582588a7.499294 7.499294 0 1 1-10.917647-7.920941l6.746353-39.363765-28.581647-27.873882a7.529412 7.529412 0 0 1 4.156235-12.860235l39.529412-5.737412 17.679059-35.824941c2.529882-5.12 10.977882-5.12 13.492706 0l17.679059 35.824941 39.514353 5.737412a7.529412 7.529412 0 1 1 4.156235 12.860235l-28.581647 27.873882 6.761412 39.348706a7.529412 7.529412 0 0 1-7.424 8.809412z m-85.549177-76.16753l20.495059 19.968c1.776941 1.731765 2.590118 4.216471 2.183529 6.656l-4.833882 28.235295 25.359059-13.327059a7.574588 7.574588 0 0 1 7.002353 0l25.359059 13.327059-4.848942-28.220236a7.544471 7.544471 0 0 1 2.18353-6.671059l20.495059-19.968-28.340706-4.111058a7.529412 7.529412 0 0 1-5.662118-4.111059l-12.679529-25.690353-12.67953 25.690353a7.529412 7.529412 0 0 1-5.662117 4.111059l-28.370824 4.111058z" p-id="1005" fill="#ffffff"></path><path d="M851.531294 351.337412c-72.432941 0-131.343059-58.910118-131.343059-131.343059a130.258824 130.258824 0 0 1 40.568471-94.945882 7.529412 7.529412 0 1 1 10.405647 10.887529 115.350588 115.350588 0 0 0-35.930353 84.058353c0 64.120471 52.163765 116.284235 116.284235 116.284235a116.088471 116.088471 0 0 0 77.658353-29.726117 7.529412 7.529412 0 1 1 10.059294 11.203764 131.087059 131.087059 0 0 1-87.702588 33.581177z" p-id="1006" fill="#ffffff"></path></svg>