<?xml version="1.0" standalone="no"?><!DOCTYPE svg PUBLIC "-//W3C//DTD SVG 1.1//EN" "http://www.w3.org/Graphics/SVG/1.1/DTD/svg11.dtd"><svg t="1557564696457" class="icon" style="" viewBox="0 0 1507 1024" version="1.1" xmlns="http://www.w3.org/2000/svg" p-id="1923" xmlns:xlink="http://www.w3.org/1999/xlink" width="294.3359375" height="200"><defs><style type="text/css"></style></defs><path d="M1404.827485 1023.962307v-19.562798h83.245546v-82.77438H1507.730061v102.337178h-102.902576zM1488.073031 19.638184H1404.827485V0.075387H1507.730061V102.337178h-19.65703V19.638184z m-73.363632 61.86719a55.829988 55.829988 0 0 1 16.597595 39.841767v768.533988c-0.012564 31.084368-25.361276 56.288589-56.640393 56.313718H123.483092c-31.272834-0.043975-56.608982-25.235632-56.640393-56.313718V121.347141c0.043975-31.071804 25.380123-56.244613 56.640393-56.282307h1251.208638c15.071018 0 29.281374 5.82989 40.017669 16.44054z m-39.986258 8.4747H123.483092v0.018846c-17.426847 0.018847-31.549252 14.053301-31.568098 31.37335v768.533988c0 17.288638 14.16638 31.398479 31.568098 31.398478h1251.183509c17.401718 0 31.593227-14.084712 31.593227-31.398478V121.347141c0-8.374184-3.285595-16.27092-9.247411-22.201325a32.026699 32.026699 0 0 0-22.289276-9.165742z m-462.326577 647.431852c1.030282-49.158282 10.133202-133.050896 59.354307-175.73222l67.766184 0.615656 63.462871 104.058503 11.961326-77.811436-8.650602-14.10984 0.647068-14.499337a280.846135 280.846135 0 0 1 37.712098 0.050257l0.703607 14.499338-8.625472 14.103558 12.011583 78.439656 49.290208-105.226994 74.965595-2.538012c38.74238 36.405399 63.588515 122.188957 57.494773 178.150871h-418.093546z m315.216099-288.680049c-5.163975 18.337767-11.201178 35.331141-19.85178 49.57919-9.881914 16.446822-22.948908 29.09919-41.418601 35.909105-8.254822 2.965202-29.337914 4.384982-49.623165 4.033178-19.556515-0.245006-39.213546-2.186209-47.034896-5.779632-16.798626-7.65173-28.609178-20.580515-37.511068-36.650405-7.670577-13.732908-13.110969-29.727411-17.904294-46.62027-7.846479-4.083436-13.73919-11.03784-17.728393-20.530258-4.334724-10.315387-6.31362-23.872393-6.062331-39.942282l0.075386-5.484368 4.586013-3.040589c1.155926-0.772712 2.330699-1.520294 3.511754-2.186209-5.163975-63.142479-3.210209-86.487166 20.385767-113.173987 46.004613-37.429399 151.464049-36.103853 198.046626-2.173644 31.744 29.802798 33.949055 63.192736 24.199067 114.719411 1.526577 0.873227 3.028025 1.796712 4.560884 2.814429l4.586012 3.065718 0.05654 5.459239c0.270135 15.743215-1.633374 29.080344-5.792196 39.370601-3.838429 9.391902-9.479853 16.396564-17.081325 20.630773z m-0.571681-54.718037a14.329718 14.329718 0 0 0-5.440393-0.822969l-9.354209 0.59681-1.727607-9.146896a119.035288 119.035288 0 0 0-9.706012-29.652024c-29.834209 5.811043-74.186601 10.89335-109.241325-8.738552-13.513031-7.551215-33.25173 7.921865-49.440982 6.326184a121.623558 121.623558 0 0 0-10.931043 32.064392l-1.809276 9.492417-9.580368-0.917202a14.612417 14.612417 0 0 0-5.584884 0.672196 26.385276 26.385276 0 0 0-2.58827 1.024c0.22616 10.510135 1.702479 19.204712 4.466651 25.738209 2.406086 5.729374 5.741939 9.44216 10.108073 10.811681l5.610013 1.746454 1.551705 5.60373c4.717939 17.269791 9.932172 33.641227 17.357743 46.915534 6.866454 12.313129 15.667828 22.151067 27.773644 27.685693 5.12 2.336982 21.416049 3.637399 38.440834 3.888687 18.099043 0.251288 36.128982-0.672196 42.09708-2.870969 13.412515-4.906405 23.093399-14.44908 30.588073-26.9067 8.02238-13.381104 13.764319-30.374479 18.802651-49.013791l1.457472-5.352442 5.314749-1.846969c4.20908-1.470037 7.494675-5.308466 9.875632-11.088098 2.607117-6.426699 4.03946-15.001914 4.315877-25.28589a16.06989 16.06989 0 0 0-2.355828-0.923485zM332.642945 457.049521h288.887362v49.309056H332.642945v-49.309056z m0-122.741791h288.887362v49.315337H332.642945v-49.315337z m0-122.735509h288.887362v49.309055H332.642945v-49.309055zM201.41389 457.049521h95.929325v49.309056h-95.929325v-49.309056z m0-122.741791h95.929325v49.315337h-95.929325v-49.315337z m0-122.735509h95.929325v49.309055h-95.929325v-49.309055z m254.712147 615.863754H201.41389v-49.334184h254.712147v49.334184z m464.248932 0H485.909988v-49.334184h434.464981v49.334184zM19.68216 102.337178H0V0.075387h102.927706v19.562797H19.68216V102.337178z m0 902.062331h83.245546v19.562798H0v-102.337178h19.68216v82.77438z" p-id="1924" fill="#ffffff"></path></svg>